<svg aria-hidden="true" style="position: absolute; width: 0; height: 0; overflow: hidden;" version="1.1" xmlns="http://www.w3.org/2000/svg" xmlns:xlink="http://www.w3.org/1999/xlink">
<defs>
<symbol id="icon-tel" viewBox="0 0 32 32">
<path fill="none" stroke="#9da4bd" style="stroke: var(--color1, #9da4bd)" stroke-linejoin="round" stroke-linecap="round" stroke-miterlimit="4" stroke-width="1.3333" d="M26.676 21.345v3.218c0 0.003 0 0.007 0 0.010 0 1.185-0.961 2.146-2.146 2.146-0.068 0-0.135-0.003-0.202-0.009l0.009 0.001c-3.483-0.388-6.628-1.564-9.341-3.344l0.081 0.050c-2.609-1.675-4.763-3.829-6.388-6.355l-0.050-0.083c-1.737-2.645-2.913-5.806-3.286-9.208l-0.008-0.095c-0.006-0.058-0.009-0.125-0.009-0.193 0-1.185 0.96-2.146 2.145-2.146h3.22c0.006-0 0.013-0 0.020-0 1.079 0 1.973 0.797 2.124 1.835l0.001 0.012c0.136 1.030 0.387 2.041 0.751 3.014 0.295 0.784 0.107 1.669-0.483 2.265l-1.363 1.362c1.555 2.701 3.737 4.883 6.355 6.394l0.083 0.044 1.363-1.362c0.388-0.383 0.921-0.62 1.509-0.62 0.271 0 0.53 0.050 0.769 0.142l-0.015-0.005c0.974 0.363 1.985 0.614 3.014 0.751 1.050 0.151 1.848 1.045 1.848 2.125 0 0.019-0 0.037-0.001 0.056l0-0.003z"></path>
</symbol>
<symbol id="icon-mail" viewBox="0 0 32 32">
<path fill="none" stroke="#9da4bd" style="stroke: var(--color1, #9da4bd)" stroke-linejoin="round" stroke-linecap="round" stroke-miterlimit="4" stroke-width="1.3333" d="M6.402 6.669h19.207c1.32 0 2.401 1.050 2.401 2.334v14.005c0 1.283-1.080 2.334-2.401 2.334h-19.207c-1.32 0-2.401-1.051-2.401-2.334v-14.005c0-1.284 1.080-2.334 2.401-2.334z"></path>
<path fill="none" stroke="#9da4bd" style="stroke: var(--color1, #9da4bd)" stroke-linejoin="round" stroke-linecap="round" stroke-miterlimit="4" stroke-width="1.3333" d="M26.676 9.337l-10.67 8.003-10.67-8.003"></path>
</symbol>
<symbol id="icon-map-pin" viewBox="0 0 32 32">
<path fill="none" stroke="#9da4bd" style="stroke: var(--color1, #9da4bd)" stroke-linejoin="round" stroke-linecap="round" stroke-miterlimit="4" stroke-width="1.3333" d="M26.676 13.824c0 7.637-10.67 14.186-10.67 14.186s-10.67-6.549-10.67-14.186c0-5.425 4.778-9.822 10.67-9.822s10.67 4.398 10.67 9.822v0z"></path>
<path fill="none" stroke="#9da4bd" style="stroke: var(--color1, #9da4bd)" stroke-linejoin="round" stroke-linecap="round" stroke-miterlimit="4" stroke-width="1.3333" d="M16.006 18.673c2.21 0 4.001-1.791 4.001-4.001s-1.791-4.001-4.001-4.001v0c-2.21 0-4.001 1.791-4.001 4.001s1.791 4.001 4.001 4.001v0z"></path>
</symbol>
</defs>
</svg>
